<svg xmlns="http://www.w3.org/2000/svg" width="169" height="50" viewBox="0 0 169 50" class="j-u-svg j-u-typo-2xl"><style>*, ::after, ::before { -webkit-font-smoothing: antialiased; box-sizing: border-box; }
* { -webkit-tap-highlight-color: rgba(0, 0, 0, 0); box-sizing: border-box; -webkit-print-color-adjust: exact !important; }</style><title>Logo jobs.at</title><defs><linearGradient x1="0%" y1="50%" x2="100%" y2="50%" id="print-logo-gradient"><stop stop-color="#DC2D76" offset="0%"></stop><stop stop-color="#FB7C23" offset="18.339%"></stop><stop stop-color="#981F94" offset="41.61%"></stop><stop stop-color="#30BACC" offset="66.369%"></stop><stop stop-color="#0D658D" offset="100%"></stop></linearGradient></defs><g id="Symbols" stroke="none" stroke-width="1" fill="none" fill-rule="evenodd"><g id="Logo/jobs.at/Normal"><g id="jobs.at_logo"><g id="Group" transform="translate(4.567)" fill="#221F20"><path d="M20.466 22.349c0 1.492-.13 2.939-.389 4.338-.259 1.401-.753 2.642-1.484 3.723-.73 1.081-1.774 1.949-3.129 2.603-1.355.655-3.128.982-5.32.982-2.558 0-4.72-.61-6.486-1.827S.75 29.048.232 26.46l6.532-1.598c.091.792.449 1.461 1.073 2.01.624.547 1.332.821 2.124.821.822 0 1.461-.205 1.918-.616.457-.411.791-.921 1.005-1.53.212-.609.342-1.271.388-1.987.046-.715.069-1.378.069-1.987V.837h7.125v21.512Zm11.19-5.344c0 1.523.235 2.916.707 4.179a9.557 9.557 0 0 0 2.033 3.288 9.267 9.267 0 0 0 3.174 2.17c1.233.518 2.61.776 4.133.776 1.522 0 2.901-.258 4.134-.776a9.27 9.27 0 0 0 3.174-2.17 9.572 9.572 0 0 0 2.033-3.288c.472-1.263.708-2.657.708-4.18 0-1.49-.236-2.877-.708-4.155-.473-1.28-1.15-2.383-2.033-3.312a9.29 9.29 0 0 0-3.174-2.17c-1.233-.517-2.612-.776-4.134-.776-1.522 0-2.9.26-4.133.777a9.28 9.28 0 0 0-3.174 2.17c-.883.928-1.56 2.032-2.033 3.31-.472 1.28-.707 2.665-.707 4.157m-7.4 0c0-2.588.434-4.933 1.302-7.034.868-2.1 2.078-3.89 3.631-5.366 1.553-1.477 3.395-2.611 5.527-3.403C36.846.41 39.176.014 41.704.014c2.527 0 4.856.397 6.988 1.188 2.13.792 3.973 1.926 5.526 3.403s2.763 3.265 3.631 5.366c.868 2.101 1.301 4.446 1.301 7.034s-.433 4.933-1.301 7.033c-.868 2.101-2.078 3.89-3.631 5.367-1.553 1.477-3.395 2.611-5.526 3.403-2.132.791-4.461 1.187-6.988 1.187-2.528 0-4.858-.396-6.988-1.187-2.132-.792-3.974-1.926-5.527-3.403s-2.763-3.266-3.63-5.367c-.869-2.1-1.303-4.445-1.303-7.033m46.13 10.14h6.394c.548 0 1.103-.061 1.667-.183a4.396 4.396 0 0 0 1.53-.64c.457-.304.83-.7 1.12-1.187.288-.487.433-1.08.433-1.782 0-.76-.19-1.377-.571-1.85a3.631 3.631 0 0 0-1.439-1.073 7.393 7.393 0 0 0-1.872-.502 13.923 13.923 0 0 0-1.873-.137h-5.39v7.353Zm0-13.383h5.16c.549 0 1.09-.06 1.622-.183a4.479 4.479 0 0 0 1.439-.593c.426-.274.768-.64 1.028-1.097.258-.456.388-1.004.388-1.644 0-.67-.145-1.225-.434-1.667A3.034 3.034 0 0 0 78.47 7.55a5.36 5.36 0 0 0-1.553-.525 9.33 9.33 0 0 0-1.69-.16h-4.841v6.897ZM63.26.837h12.058c1.4 0 2.808.099 4.224.296 1.416.199 2.687.594 3.814 1.188a7.313 7.313 0 0 1 2.74 2.49c.7 1.065 1.05 2.481 1.05 4.247 0 1.827-.51 3.342-1.53 4.544-1.02 1.203-2.367 2.063-4.042 2.58v.092c1.066.153 2.033.45 2.9.89a7.752 7.752 0 0 1 2.238 1.69 7.211 7.211 0 0 1 1.44 2.398c.334.914.502 1.889.502 2.923 0 1.706-.366 3.13-1.097 4.27a8.617 8.617 0 0 1-2.831 2.764c-1.158.7-2.46 1.203-3.905 1.507a20.902 20.902 0 0 1-4.316.457H63.26V.837Zm46.266 7.901c-.578-.73-1.363-1.27-2.352-1.621-.99-.35-1.926-.526-2.809-.526-.518 0-1.05.062-1.598.183-.541.12-1.064.312-1.553.571-.488.26-.884.602-1.188 1.028-.304.427-.457.944-.457 1.552 0 .975.366 1.721 1.097 2.238.73.518 1.651.96 2.763 1.325 1.11.365 2.306.73 3.585 1.096 1.279.366 2.474.884 3.585 1.553a8.499 8.499 0 0 1 2.763 2.695c.731 1.127 1.097 2.634 1.097 4.521 0 1.797-.336 3.365-1.005 4.705a9.54 9.54 0 0 1-2.718 3.334c-1.142.883-2.466 1.538-3.973 1.964-1.508.426-3.099.64-4.773.64-2.101 0-4.05-.32-5.846-.96-1.797-.64-3.471-1.674-5.024-3.106l5.07-5.572a7.39 7.39 0 0 0 2.763 2.261c1.11.533 2.26.8 3.448.8.578 0 1.164-.069 1.758-.206a5.722 5.722 0 0 0 1.598-.617 3.448 3.448 0 0 0 1.142-1.05c.29-.426.434-.929.434-1.508 0-.974-.373-1.742-1.119-2.306-.746-.563-1.683-1.043-2.809-1.439a88.363 88.363 0 0 0-3.654-1.187 16.366 16.366 0 0 1-3.654-1.599 8.8 8.8 0 0 1-2.809-2.649c-.746-1.096-1.118-2.542-1.118-4.339 0-1.735.342-3.257 1.027-4.567a9.919 9.919 0 0 1 2.74-3.289c1.142-.882 2.46-1.544 3.951-1.986a16.183 16.183 0 0 1 4.613-.663c1.827 0 3.593.26 5.298.777a12.24 12.24 0 0 1 4.613 2.603l-4.887 5.344h.001Zm6.224 21.954c0-.365.068-.71.202-1.038.135-.327.322-.61.563-.851.24-.24.524-.428.85-.563a2.7 2.7 0 0 1 1.039-.202 2.7 2.7 0 0 1 1.039.202c.326.135.61.323.85.563.24.24.428.524.563.85.135.328.202.674.202 1.04a2.7 2.7 0 0 1-.202 1.038 2.569 2.569 0 0 1-1.413 1.413 2.7 2.7 0 0 1-1.039.202 2.7 2.7 0 0 1-1.038-.202 2.558 2.558 0 0 1-1.414-1.413 2.7 2.7 0 0 1-.202-1.039m18.202-12-2.48 6.346h4.99l-2.51-6.346Zm-1.73-5.942h3.72l8.885 20.423h-5.077l-1.76-4.327h-7.932l-1.702 4.327h-4.962l8.827-20.423Zm15.922 3.98h-5.827v-3.98h16.154v3.98h-5.827v16.443h-4.5V16.731Z" id="Shape"></path></g><path id="Path" fill="url(#print-logo-gradient)" fill-rule="nonzero" d="M0 49.771h168.363v-4.579H0z"></path></g></g></g></svg>